<svg xmlns="http://www.w3.org/2000/svg" viewBox="0 0 1000 620" fill="none" preserveAspectRatio="none">
  <path d="M43 4h914c12 0 20 7 28 18l11 22v532l-11 22c-8 11-16 18-28 18H43c-12 0-20-7-28-18L4 576V44l11-22C23 11 31 4 43 4z" stroke="var(--frame-dark,#50331d)" stroke-width="8"/>
  <path d="M48 12h904c10 0 17 6 24 15l10 20v526l-10 20c-7 9-14 15-24 15H48c-10 0-17-6-24-15l-10-20V47l10-20c7-9 14-15 24-15z" stroke="var(--frame,#a77b42)" stroke-width="3"/>
  <path d="M57 21h886c8 0 14 5 20 12l8 17v520l-8 17c-6 7-12 12-20 12H57c-8 0-14-5-20-12l-8-17V50l8-17c6-7 12-12 20-12z" stroke="var(--highlight,#d0b078)" stroke-opacity=".58"/>
  <path d="M21 77c28 0 51-23 51-51M979 77c-28 0-51-23-51-51M21 543c28 0 51 23 51 51M979 543c-28 0-51 23-51 51" stroke="var(--frame,#a77b42)" stroke-width="3"/>
  <path d="M500 4l14 14-14 14-14-14L500 4zM500 588l14 14-14 14-14-14 14-14z" fill="var(--frame,#a77b42)" stroke="var(--frame-dark,#50331d)" stroke-width="2"/>
</svg>
